<?xml version="1.0" encoding="utf-8"?>
<!-- Generator: Adobe Illustrator 28.1.0, SVG Export Plug-In . SVG Version: 6.00 Build 0)  -->
<svg version="1.1" id="Layer_1" xmlns="http://www.w3.org/2000/svg" xmlns:xlink="http://www.w3.org/1999/xlink" x="0px" y="0px"
	 viewBox="0 0 24 24" style="enable-background:new 0 0 24 24;" xml:space="preserve">
<style type="text/css">
	.st0{display:none;}
	.st1{fill:#FFFFFF;}
</style>
<rect x="3.5" y="3.5" class="st0" width="17" height="17"/>
<path class="st1" d="M0,3.5h10.9c0.2,0,0.4,0.1,0.5,0.2c0.1,0.1,0.2,0.3,0.2,0.5c0,0.2-0.1,0.4-0.2,0.5C11.3,4.9,11.1,5,10.9,5H0
	 M19,24V13.1c0-0.2,0.1-0.4,0.2-0.5c0.1-0.1,0.3-0.2,0.5-0.2c0.2,0,0.4,0.1,0.5,0.2c0.1,0.1,0.2,0.3,0.2,0.5V24 M19,6.1l-8.8,8.8
	C10.1,14.9,9.9,15,9.7,15c-0.2,0-0.4-0.1-0.5-0.2C9,14.7,9,14.5,9,14.3c0-0.2,0.1-0.4,0.2-0.5L17.9,5h-3.2c-0.2,0-0.4-0.1-0.5-0.2
	C14.1,4.6,14,4.5,14,4.3c0-0.2,0.1-0.4,0.2-0.5c0.1-0.1,0.3-0.2,0.5-0.2h4.8c0.3,0,0.5,0.1,0.6,0.3c0.2,0.2,0.3,0.4,0.3,0.6v4.8
	c0,0.2-0.1,0.4-0.2,0.5C20.1,9.9,20,10,19.8,10c-0.2,0-0.4-0.1-0.5-0.2C19.1,9.6,19,9.5,19,9.3V6.1z"/>
</svg>
